<?xml version="1.0" encoding="UTF-8"?>
<svg width="1920" height="1080" version="1.1" viewBox="0 0 508 285.75" xmlns="http://www.w3.org/2000/svg"
     xmlns:cc="http://creativecommons.org/ns#" xmlns:dc="http://purl.org/dc/elements/1.1/"
     xmlns:rdf="http://www.w3.org/1999/02/22-rdf-syntax-ns#" xmlns:xlink="http://www.w3.org/1999/xlink">
    <defs>
        <clipPath id="clipPath1462">
            <rect x="1.1325" y="1.1325" width="394.61" height="394.61" fill="none" stop-color="#000000" stroke="#1970b7"
                  stroke-width="2.265"/>
        </clipPath>
        <clipPath id="clipPath1466">
            <rect x="1.1325" y="1.1325" width="394.61" height="394.61" fill="none" stop-color="#000000" stroke="#1970b7"
                  stroke-width="2.265"/>
        </clipPath>
        <clipPath id="clipPath1470">
            <rect x="1.1325" y="1.1325" width="394.61" height="394.61" fill="none" stop-color="#000000" stroke="#1970b7"
                  stroke-width="2.265"/>
        </clipPath>
        <clipPath id="clipPath1474">
            <rect x="1.1325" y="1.1325" width="394.61" height="394.61" fill="none" stop-color="#000000" stroke="#1970b7"
                  stroke-width="2.265"/>
        </clipPath>
        <clipPath id="clipPath1478">
            <rect x="1.1325" y="1.1325" width="394.61" height="394.61" fill="none" stop-color="#000000" stroke="#1970b7"
                  stroke-width="2.265"/>
        </clipPath>
        <clipPath id="clipPath1482">
            <rect x="1.1325" y="1.1325" width="394.61" height="394.61" fill="none" stop-color="#000000" stroke="#1970b7"
                  stroke-width="2.265"/>
        </clipPath>
        <clipPath id="clipPath1486">
            <rect x="1.1325" y="1.1325" width="394.61" height="394.61" fill="none" stop-color="#000000" stroke="#1970b7"
                  stroke-width="2.265"/>
        </clipPath>
        <clipPath id="clipPath1490">
            <rect x="1.1325" y="1.1325" width="394.61" height="394.61" fill="none" stop-color="#000000" stroke="#1970b7"
                  stroke-width="2.265"/>
        </clipPath>
        <clipPath id="clipPath1494">
            <rect x="1.1325" y="1.1325" width="394.61" height="394.61" fill="none" stop-color="#000000" stroke="#1970b7"
                  stroke-width="2.265"/>
        </clipPath>
        <clipPath id="clipPath1498">
            <rect x="1.1325" y="1.1325" width="394.61" height="394.61" fill="none" stop-color="#000000" stroke="#1970b7"
                  stroke-width="2.265"/>
        </clipPath>
        <clipPath id="clipPath1502">
            <rect x="1.1325" y="1.1325" width="394.61" height="394.61" fill="none" stop-color="#000000" stroke="#1970b7"
                  stroke-width="2.265"/>
        </clipPath>
        <clipPath id="clipPath1506">
            <rect x="4.2803" y="4.2803" width="1491.4" height="1491.4" fill="none" stop-color="#000000" stroke="#1970b7"
                  stroke-width="8.5607"/>
        </clipPath>
        <clipPath id="clipPath1510">
            <rect x="-81.382" y="320.97" width="652.97" height="652.97" fill="none" stop-color="#000000"
                  stroke="#1970b7" stroke-width="3.748"/>
        </clipPath>
        <clipPath id="clipPath1514">
            <rect x="-315.24" y="226.27" width="571.13" height="571.13" fill="none" stop-color="#000000"
                  stroke="#1970b7" stroke-width="3.2782"/>
        </clipPath>
        <clipPath id="clipPath1518">
            <rect x="4.2803" y="4.2803" width="1491.4" height="1491.4" fill="none" stop-color="#000000" stroke="#1970b7"
                  stroke-width="8.5607"/>
        </clipPath>
        <clipPath id="clipPath1522">
            <rect x="-14.384" y="-22.315" width="429.39" height="429.39" fill="none" stop-color="#000000"
                  stroke="#1970b7" stroke-width="2.4646"/>
        </clipPath>
        <clipPath id="clipPath1526">
            <rect x="1.1325" y="1.1325" width="394.61" height="394.61" fill="none" stop-color="#000000" stroke="#1970b7"
                  stroke-width="2.265"/>
        </clipPath>
        <clipPath id="clipPath2160">
            <rect x="79.907" y="1.3044" width="306.55" height="396.49" fill="none" stroke="#123f66"
                  stroke-width="4.5752" style="paint-order:markers stroke fill"/>
        </clipPath>
    </defs>
    <metadata>
        <rdf:RDF>
            <cc:Work rdf:about="">
                <dc:format>image/svg+xml</dc:format>
                <dc:type rdf:resource="http://purl.org/dc/dcmitype/StillImage"/>
                <dc:title/>
            </cc:Work>
        </rdf:RDF>
    </metadata>
    <rect width="508" height="285.75" fill="white" stroke="#123f66" stroke-width="5"
          style="paint-order:markers stroke fill"/>
    <g transform="matrix(.70285 0 0 .72507 -57.03 -1.8127)" clip-path="url(#clipPath2160)">
        <g>
            <g transform="matrix(1.0453 0 0 1.0453 -22.46 -10.378)">
                <path d="m117.23 263.06c0.13225-0.13224 1.1351-0.199 2.2285-0.14835l1.988 0.0921-0.2377-6.1134c-0.68525-17.623-2.4918-36.548-3.5942-37.65-0.11679-0.11679-0.41991 0.0715-0.67361 0.41848-0.39504 0.54025-0.49473 0.10962-0.69429-2.9992-0.92665-14.435-2.1453-23.193-3.794-27.265-0.91035-2.2489-1.8101-2.8767-2.1743-1.5171-0.56002 2.0908-0.0938 24.854 1.0281 50.2 0.42383 9.5746 1.2509 20.832 1.769 24.077 0.17975 1.1259 0.2166 1.1465 2.0485 1.1465 1.026 0 1.9737-0.1082 2.1059-0.24045z"
                      clip-path="url(#clipPath1526)" fill="#fff" stroke-width=".35278"/>
                <g transform="matrix(.919 0 0 .919 14.352 21.64)" clip-path="url(#clipPath1522)">
                    <g transform="translate(-10.097 -163.95)">
                        <path d="m193.82 493.41a68.82 68.82 0 0 1-68.82 68.82 68.82 68.82 0 0 1-68.82-68.82 68.82 68.82 0 0 1 68.82-68.82 68.82 68.82 0 0 1 68.82 68.82z"
                              fill="#1970b7" stop-color="#000000"/>
                        <path transform="scale(.26458)"
                              d="m522.81 1609.7a225.39 244.42 0 0 1 124.55 218.6 225.39 244.42 0 0 1-225.39 244.42 225.39 244.42 0 0 1-195.03-121.9 260.11 260.11 0 0 0 245.5 174.17 260.11 260.11 0 0 0 260.11-260.11 260.11 260.11 0 0 0-209.74-255.18z"
                              fill="#16619f" stop-color="#000000"/>
                        <g transform="matrix(.27217 0 0 .27217 84.998 -17.627)" shape-rendering="auto">
                            <path d="m162.66 1665.8c-5.2157-0.3862-10.444-0.5797-15.674-0.5801-40.834 0-78.97 11.531-111.35 31.498m-38.207 30.074c-18.931 19.097-34.015 41.177-44.314 63.877m-14.682 46.361c-2.5489 13.156-3.8984 26.74-3.8984 40.641 6e-5 42.627 12.823 84.269 36.803 119.51"
                                  color="#000000" color-rendering="auto" dominant-baseline="auto" fill="#1970b7"
                                  image-rendering="auto" solid-color="#000000" stop-color="#000000"
                                  style="font-feature-settings:normal;font-variant-alternates:normal;font-variant-caps:normal;font-variant-east-asian:normal;font-variant-ligatures:normal;font-variant-numeric:normal;font-variant-position:normal;font-variation-settings:normal;inline-size:0;isolation:auto;mix-blend-mode:normal;shape-margin:0;shape-padding:0;text-decoration-color:#000000;text-decoration-line:none;text-decoration-style:solid;text-indent:0;text-orientation:mixed;text-transform:none;white-space:normal"/>
                            <path d="m146.98 1655.8c-42.612 0-82.491 12.05-116.31 32.904-4.442 2.7388-5.8228 8.5599-3.084 13.002 2.7387 4.442 8.5599 5.8228 13.002 3.084 21.544-13.285 45.731-22.659 71.62-27.127 11.293-1.9491 22.909-2.9649 34.771-2.9649 4.9974 4e-4 9.9928 0.1857 14.977 0.5547 5.2048 0.3855 9.7364-3.5217 10.121-8.7265 0.38554-5.2048-3.5217-9.7364-8.7266-10.121-5.4476-0.4034-10.909-0.6051-16.371-0.6055zm-149.67 61.574c-2.4802 0.03-4.8492 1.0337-6.5957 2.7949-19.729 19.901-35.426 42.864-46.207 66.625-2.1558 4.7516-0.05206 10.351 4.6992 12.508 4.7516 2.1558 10.351 0.052 12.508-4.6993 9.8183-21.638 24.288-42.836 42.422-61.129 3.6743-3.7062 3.6481-9.6894-0.058594-13.363-1.7982-1.7819-4.2362-2.7676-6.7676-2.7363zm-58.883 110.24c-4.5246 0-8.4132 3.2103-9.2734 7.6524-2.6614 13.737-4.0723 27.925-4.0723 42.438 6.3e-5 44.522 13.394 88.016 38.439 124.83 2.9351 4.3147 8.8122 5.4331 13.127 2.498 4.3147-2.9351 5.4331-8.8122 2.498-13.127-22.914-33.676-35.166-73.465-35.166-114.2-1e-5 -13.289 1.2883-26.269 3.7246-38.844 0.99178-5.1225-2.3562-10.079-7.4785-11.072-0.59268-0.1153-1.195-0.1735-1.7988-0.1739z"
                                  color="#000000" color-rendering="auto" dominant-baseline="auto" fill="#b2d5f4"
                                  image-rendering="auto" solid-color="#000000" stop-color="#000000"
                                  style="font-feature-settings:normal;font-variant-alternates:normal;font-variant-caps:normal;font-variant-east-asian:normal;font-variant-ligatures:normal;font-variant-numeric:normal;font-variant-position:normal;font-variation-settings:normal;inline-size:0;isolation:auto;mix-blend-mode:normal;shape-margin:0;shape-padding:0;text-decoration-color:#000000;text-decoration-line:none;text-decoration-style:solid;text-indent:0;text-orientation:mixed;text-transform:none;white-space:normal"/>
                        </g>
                        <g transform="matrix(1.0287 0 0 1.0287 11.53 164.96)">
                            <path transform="matrix(.26458 0 0 .26458 71.421 -177.5)"
                                  d="m146.98 1713.8c-61.583 0-115.24 34.074-143.17 84.381h-0.27148l0.14062 0.2383c-12.956 23.432-20.342 50.369-20.342 79.023 0 90.056 72.856 163.18 162.81 163.63l0.30859 0.5254 0.30859-0.5176c0.0725 1e-4 0.1443 0 0.2168 0 90.335 0 163.64-73.306 163.64-163.64 0-28.214-7.1512-54.768-19.738-77.945l0.20508-0.3437h-0.39844c-27.771-50.841-81.731-85.352-143.71-85.352zm0 6.9394c58.048 0 108.69 31.519 135.77 78.385l-27.785-0.094c-24.272-33.358-63.611-55.06-107.99-55.06-44.054 0-83.142 21.386-107.46 54.332l-27.77-0.094c27.206-46.358 77.557-77.469 135.22-77.469zm0 30.17c40.283 0 76.145 18.792 99.312 48.092l-198.08-0.6699c23.18-28.914 58.794-47.422 98.768-47.422zm-139.2 54.492 14.434 24.584c-5.6187 14.749-8.7051 30.744-8.7051 47.457 0 67.094 49.599 122.67 114.1 132.06l14.41 24.543c-84.285-2.6171-151.74-71.684-151.74-156.61 0-25.98 6.32-50.475 17.496-72.041zm278.95 1.0547c10.839 21.308 16.951 45.429 16.951 70.986 0 85.261-67.993 154.55-152.75 156.64l14.594-24.465c64.902-9.0394 114.92-64.802 114.92-132.18 0-16.346-2.9499-32.008-8.3359-46.486zm-163.85 15.744h47.396l7.293 9.8692 7.2949 9.8691-4.1328 4.0137c-8.6939 8.4435-16.298 29.348-18.26 50.197-0.71165 7.5583-0.90482 14.13-0.42969 14.605 0.47459 0.4748 4.3417-0.9205 8.5938-3.0996 14.604-7.4845 26.99-23.521 30.383-39.34 0.68171-3.1783 1.4298-5.7793 1.666-5.7793 0.88187 0 5.2542 11.01 6.9102 17.4 0.95929 3.702 1.7188 11.696 1.7188 18.096 0 34.232-19.108 61.634-46.32 66.428-7.313 1.2883-7.5893 1.658-5.5156 7.3926 1.259 3.4817 0.93004 4.4139-5.4238 15.398-3.7199 6.4311-7.0847 11.693-7.4766 11.693-0.39222 0-3.7566-5.2623-7.4766-11.693-6.3546-10.984-6.6827-11.917-5.4238-15.398 2.0805-5.7533 1.807-6.1036-5.8438-7.4512-20.68-3.6427-37.386-21.195-43.711-45.926-2.7833-10.882-3.0477-28.949-0.5625-38.539 1.6559-6.3907 6.0281-17.4 6.9102-17.4 0.2355 0 1.0076 2.6978 1.7148 5.9961 3.4038 15.872 16.717 32.885 30.977 39.584 3.9631 1.8613 7.5322 3.0557 7.9336 2.6543 0.40139-0.401 0.17603-6.9692-0.5039-14.598-1.8588-20.877-9.3912-41.697-18.168-50.221l-4.1328-4.0137 7.2949-9.8691zm-96.086 15.586 96.234 163.91c-58.451-11.184-102.57-62.524-102.57-124.25 0-13.854 2.2301-27.184 6.3379-39.656zm240.69 0.9414c3.9126 12.201 6.0332 25.208 6.0332 38.715 0 61.999-44.511 113.52-103.34 124.4z"
                                  color="#000000" color-rendering="auto" dominant-baseline="auto" fill="#9fcdeb"
                                  image-rendering="auto" shape-rendering="auto" solid-color="#000000"
                                  stop-color="#000000"
                                  style="font-feature-settings:normal;font-variant-alternates:normal;font-variant-caps:normal;font-variant-east-asian:normal;font-variant-ligatures:normal;font-variant-numeric:normal;font-variant-position:normal;font-variation-settings:normal;inline-size:0;isolation:auto;mix-blend-mode:normal;shape-margin:0;shape-padding:0;text-decoration-color:#000000;text-decoration-line:none;text-decoration-style:solid;text-indent:0;text-orientation:mixed;text-transform:none;white-space:normal"/>
                        </g>
                    </g>
                </g>
                <path transform="scale(.26458)"
                      d="m558.38 1009.4-0.0273 2.0449a239.04 239.04 0 0 1 59.998 41.781l8e-3 0.01 33.768 29.539 45.008 78.807 0.71094 77.348-43.703 84.58-52.822 51.438-64.824 39.113-45.434 18.514-80.094 11.102-85.041-8.9511-81.938-46.275-38.047-79.582 7.6387-117.21 4.0664-5.2383a239.04 239.04 0 0 1 21.91-67.137l-0.64453-2.8906-56.633 76.588-15.832 79.736 17.834 96.693 83.1 89.74 178.6 31.049 202.8-90.287 91.336-137.82-14-123.58-77.748-100.1z"
                      clip-path="url(#clipPath1518)" fill="#fff"/>
                <g transform="matrix(.69093 0 0 .69093 218.94 -155.2)" clip-path="url(#clipPath1514)">
                    <g transform="translate(-10.097 -163.95)">
                        <path d="m193.82 493.41a68.82 68.82 0 0 1-68.82 68.82 68.82 68.82 0 0 1-68.82-68.82 68.82 68.82 0 0 1 68.82-68.82 68.82 68.82 0 0 1 68.82 68.82z"
                              fill="#1970b7" stop-color="#000000"/>
                        <path transform="scale(.26458)"
                              d="m522.81 1609.7a225.39 244.42 0 0 1 124.55 218.6 225.39 244.42 0 0 1-225.39 244.42 225.39 244.42 0 0 1-195.03-121.9 260.11 260.11 0 0 0 245.5 174.17 260.11 260.11 0 0 0 260.11-260.11 260.11 260.11 0 0 0-209.74-255.18z"
                              fill="#16619f" stop-color="#000000"/>
                        <g transform="matrix(.27217 0 0 .27217 84.998 -17.627)" shape-rendering="auto">
                            <path d="m162.66 1665.8c-5.2157-0.3862-10.444-0.5797-15.674-0.5801-40.834 0-78.97 11.531-111.35 31.498m-38.207 30.074c-18.931 19.097-34.015 41.177-44.314 63.877m-14.682 46.361c-2.5489 13.156-3.8984 26.74-3.8984 40.641 6e-5 42.627 12.823 84.269 36.803 119.51"
                                  color="#000000" color-rendering="auto" dominant-baseline="auto" fill="#1970b7"
                                  image-rendering="auto" solid-color="#000000" stop-color="#000000"
                                  style="font-feature-settings:normal;font-variant-alternates:normal;font-variant-caps:normal;font-variant-east-asian:normal;font-variant-ligatures:normal;font-variant-numeric:normal;font-variant-position:normal;font-variation-settings:normal;inline-size:0;isolation:auto;mix-blend-mode:normal;shape-margin:0;shape-padding:0;text-decoration-color:#000000;text-decoration-line:none;text-decoration-style:solid;text-indent:0;text-orientation:mixed;text-transform:none;white-space:normal"/>
                            <path d="m146.98 1655.8c-42.612 0-82.491 12.05-116.31 32.904-4.442 2.7388-5.8228 8.5599-3.084 13.002 2.7387 4.442 8.5599 5.8228 13.002 3.084 21.544-13.285 45.731-22.659 71.62-27.127 11.293-1.9491 22.909-2.9649 34.771-2.9649 4.9974 4e-4 9.9928 0.1857 14.977 0.5547 5.2048 0.3855 9.7364-3.5217 10.121-8.7265 0.38554-5.2048-3.5217-9.7364-8.7266-10.121-5.4476-0.4034-10.909-0.6051-16.371-0.6055zm-149.67 61.574c-2.4802 0.03-4.8492 1.0337-6.5957 2.7949-19.729 19.901-35.426 42.864-46.207 66.625-2.1558 4.7516-0.05206 10.351 4.6992 12.508 4.7516 2.1558 10.351 0.052 12.508-4.6993 9.8183-21.638 24.288-42.836 42.422-61.129 3.6743-3.7062 3.6481-9.6894-0.058594-13.363-1.7982-1.7819-4.2362-2.7676-6.7676-2.7363zm-58.883 110.24c-4.5246 0-8.4132 3.2103-9.2734 7.6524-2.6614 13.737-4.0723 27.925-4.0723 42.438 6.3e-5 44.522 13.394 88.016 38.439 124.83 2.9351 4.3147 8.8122 5.4331 13.127 2.498 4.3147-2.9351 5.4331-8.8122 2.498-13.127-22.914-33.676-35.166-73.465-35.166-114.2-1e-5 -13.289 1.2883-26.269 3.7246-38.844 0.99178-5.1225-2.3562-10.079-7.4785-11.072-0.59268-0.1153-1.195-0.1735-1.7988-0.1739z"
                                  color="#000000" color-rendering="auto" dominant-baseline="auto" fill="#b2d5f4"
                                  image-rendering="auto" solid-color="#000000" stop-color="#000000"
                                  style="font-feature-settings:normal;font-variant-alternates:normal;font-variant-caps:normal;font-variant-east-asian:normal;font-variant-ligatures:normal;font-variant-numeric:normal;font-variant-position:normal;font-variation-settings:normal;inline-size:0;isolation:auto;mix-blend-mode:normal;shape-margin:0;shape-padding:0;text-decoration-color:#000000;text-decoration-line:none;text-decoration-style:solid;text-indent:0;text-orientation:mixed;text-transform:none;white-space:normal"/>
                        </g>
                        <g transform="matrix(1.0287 0 0 1.0287 11.53 164.96)">
                            <path transform="matrix(.26458 0 0 .26458 71.421 -177.5)"
                                  d="m146.98 1713.8c-61.583 0-115.24 34.074-143.17 84.381h-0.27148l0.14062 0.2383c-12.956 23.432-20.342 50.369-20.342 79.023 0 90.056 72.856 163.18 162.81 163.63l0.30859 0.5254 0.30859-0.5176c0.0725 1e-4 0.1443 0 0.2168 0 90.335 0 163.64-73.306 163.64-163.64 0-28.214-7.1512-54.768-19.738-77.945l0.20508-0.3437h-0.39844c-27.771-50.841-81.731-85.352-143.71-85.352zm0 6.9394c58.048 0 108.69 31.519 135.77 78.385l-27.785-0.094c-24.272-33.358-63.611-55.06-107.99-55.06-44.054 0-83.142 21.386-107.46 54.332l-27.77-0.094c27.206-46.358 77.557-77.469 135.22-77.469zm0 30.17c40.283 0 76.145 18.792 99.312 48.092l-198.08-0.6699c23.18-28.914 58.794-47.422 98.768-47.422zm-139.2 54.492 14.434 24.584c-5.6187 14.749-8.7051 30.744-8.7051 47.457 0 67.094 49.599 122.67 114.1 132.06l14.41 24.543c-84.285-2.6171-151.74-71.684-151.74-156.61 0-25.98 6.32-50.475 17.496-72.041zm278.95 1.0547c10.839 21.308 16.951 45.429 16.951 70.986 0 85.261-67.993 154.55-152.75 156.64l14.594-24.465c64.902-9.0394 114.92-64.802 114.92-132.18 0-16.346-2.9499-32.008-8.3359-46.486zm-163.85 15.744h47.396l7.293 9.8692 7.2949 9.8691-4.1328 4.0137c-8.6939 8.4435-16.298 29.348-18.26 50.197-0.71165 7.5583-0.90482 14.13-0.42969 14.605 0.47459 0.4748 4.3417-0.9205 8.5938-3.0996 14.604-7.4845 26.99-23.521 30.383-39.34 0.68171-3.1783 1.4298-5.7793 1.666-5.7793 0.88187 0 5.2542 11.01 6.9102 17.4 0.95929 3.702 1.7188 11.696 1.7188 18.096 0 34.232-19.108 61.634-46.32 66.428-7.313 1.2883-7.5893 1.658-5.5156 7.3926 1.259 3.4817 0.93004 4.4139-5.4238 15.398-3.7199 6.4311-7.0847 11.693-7.4766 11.693-0.39222 0-3.7566-5.2623-7.4766-11.693-6.3546-10.984-6.6827-11.917-5.4238-15.398 2.0805-5.7533 1.807-6.1036-5.8438-7.4512-20.68-3.6427-37.386-21.195-43.711-45.926-2.7833-10.882-3.0477-28.949-0.5625-38.539 1.6559-6.3907 6.0281-17.4 6.9102-17.4 0.2355 0 1.0076 2.6978 1.7148 5.9961 3.4038 15.872 16.717 32.885 30.977 39.584 3.9631 1.8613 7.5322 3.0557 7.9336 2.6543 0.40139-0.401 0.17603-6.9692-0.5039-14.598-1.8588-20.877-9.3912-41.697-18.168-50.221l-4.1328-4.0137 7.2949-9.8691zm-96.086 15.586 96.234 163.91c-58.451-11.184-102.57-62.524-102.57-124.25 0-13.854 2.2301-27.184 6.3379-39.656zm240.69 0.9414c3.9126 12.201 6.0332 25.208 6.0332 38.715 0 61.999-44.511 113.52-103.34 124.4z"
                                  color="#000000" color-rendering="auto" dominant-baseline="auto" fill="#9fcdeb"
                                  image-rendering="auto" shape-rendering="auto" solid-color="#000000"
                                  stop-color="#000000"
                                  style="font-feature-settings:normal;font-variant-alternates:normal;font-variant-caps:normal;font-variant-east-asian:normal;font-variant-ligatures:normal;font-variant-numeric:normal;font-variant-position:normal;font-variation-settings:normal;inline-size:0;isolation:auto;mix-blend-mode:normal;shape-margin:0;shape-padding:0;text-decoration-color:#000000;text-decoration-line:none;text-decoration-style:solid;text-indent:0;text-orientation:mixed;text-transform:none;white-space:normal"/>
                        </g>
                    </g>
                </g>
                <g transform="matrix(.60433 0 0 .60433 50.314 -192.84)" clip-path="url(#clipPath1510)">
                    <g transform="translate(-10.097 -163.95)">
                        <path d="m193.82 493.41a68.82 68.82 0 0 1-68.82 68.82 68.82 68.82 0 0 1-68.82-68.82 68.82 68.82 0 0 1 68.82-68.82 68.82 68.82 0 0 1 68.82 68.82z"
                              fill="#1970b7" stop-color="#000000"/>
                        <path transform="scale(.26458)"
                              d="m522.81 1609.7a225.39 244.42 0 0 1 124.55 218.6 225.39 244.42 0 0 1-225.39 244.42 225.39 244.42 0 0 1-195.03-121.9 260.11 260.11 0 0 0 245.5 174.17 260.11 260.11 0 0 0 260.11-260.11 260.11 260.11 0 0 0-209.74-255.18z"
                              fill="#16619f" stop-color="#000000"/>
                        <g transform="matrix(.27217 0 0 .27217 84.998 -17.627)" shape-rendering="auto">
                            <path d="m162.66 1665.8c-5.2157-0.3862-10.444-0.5797-15.674-0.5801-40.834 0-78.97 11.531-111.35 31.498m-38.207 30.074c-18.931 19.097-34.015 41.177-44.314 63.877m-14.682 46.361c-2.5489 13.156-3.8984 26.74-3.8984 40.641 6e-5 42.627 12.823 84.269 36.803 119.51"
                                  color="#000000" color-rendering="auto" dominant-baseline="auto" fill="#1970b7"
                                  image-rendering="auto" solid-color="#000000" stop-color="#000000"
                                  style="font-feature-settings:normal;font-variant-alternates:normal;font-variant-caps:normal;font-variant-east-asian:normal;font-variant-ligatures:normal;font-variant-numeric:normal;font-variant-position:normal;font-variation-settings:normal;inline-size:0;isolation:auto;mix-blend-mode:normal;shape-margin:0;shape-padding:0;text-decoration-color:#000000;text-decoration-line:none;text-decoration-style:solid;text-indent:0;text-orientation:mixed;text-transform:none;white-space:normal"/>
                            <path d="m146.98 1655.8c-42.612 0-82.491 12.05-116.31 32.904-4.442 2.7388-5.8228 8.5599-3.084 13.002 2.7387 4.442 8.5599 5.8228 13.002 3.084 21.544-13.285 45.731-22.659 71.62-27.127 11.293-1.9491 22.909-2.9649 34.771-2.9649 4.9974 4e-4 9.9928 0.1857 14.977 0.5547 5.2048 0.3855 9.7364-3.5217 10.121-8.7265 0.38554-5.2048-3.5217-9.7364-8.7266-10.121-5.4476-0.4034-10.909-0.6051-16.371-0.6055zm-149.67 61.574c-2.4802 0.03-4.8492 1.0337-6.5957 2.7949-19.729 19.901-35.426 42.864-46.207 66.625-2.1558 4.7516-0.05206 10.351 4.6992 12.508 4.7516 2.1558 10.351 0.052 12.508-4.6993 9.8183-21.638 24.288-42.836 42.422-61.129 3.6743-3.7062 3.6481-9.6894-0.058594-13.363-1.7982-1.7819-4.2362-2.7676-6.7676-2.7363zm-58.883 110.24c-4.5246 0-8.4132 3.2103-9.2734 7.6524-2.6614 13.737-4.0723 27.925-4.0723 42.438 6.3e-5 44.522 13.394 88.016 38.439 124.83 2.9351 4.3147 8.8122 5.4331 13.127 2.498 4.3147-2.9351 5.4331-8.8122 2.498-13.127-22.914-33.676-35.166-73.465-35.166-114.2-1e-5 -13.289 1.2883-26.269 3.7246-38.844 0.99178-5.1225-2.3562-10.079-7.4785-11.072-0.59268-0.1153-1.195-0.1735-1.7988-0.1739z"
                                  color="#000000" color-rendering="auto" dominant-baseline="auto" fill="#b2d5f4"
                                  image-rendering="auto" solid-color="#000000" stop-color="#000000"
                                  style="font-feature-settings:normal;font-variant-alternates:normal;font-variant-caps:normal;font-variant-east-asian:normal;font-variant-ligatures:normal;font-variant-numeric:normal;font-variant-position:normal;font-variation-settings:normal;inline-size:0;isolation:auto;mix-blend-mode:normal;shape-margin:0;shape-padding:0;text-decoration-color:#000000;text-decoration-line:none;text-decoration-style:solid;text-indent:0;text-orientation:mixed;text-transform:none;white-space:normal"/>
                        </g>
                        <g transform="matrix(1.0287 0 0 1.0287 11.53 164.96)">
                            <path transform="matrix(.26458 0 0 .26458 71.421 -177.5)"
                                  d="m146.98 1713.8c-61.583 0-115.24 34.074-143.17 84.381h-0.27148l0.14062 0.2383c-12.956 23.432-20.342 50.369-20.342 79.023 0 90.056 72.856 163.18 162.81 163.63l0.30859 0.5254 0.30859-0.5176c0.0725 1e-4 0.1443 0 0.2168 0 90.335 0 163.64-73.306 163.64-163.64 0-28.214-7.1512-54.768-19.738-77.945l0.20508-0.3437h-0.39844c-27.771-50.841-81.731-85.352-143.71-85.352zm0 6.9394c58.048 0 108.69 31.519 135.77 78.385l-27.785-0.094c-24.272-33.358-63.611-55.06-107.99-55.06-44.054 0-83.142 21.386-107.46 54.332l-27.77-0.094c27.206-46.358 77.557-77.469 135.22-77.469zm0 30.17c40.283 0 76.145 18.792 99.312 48.092l-198.08-0.6699c23.18-28.914 58.794-47.422 98.768-47.422zm-139.2 54.492 14.434 24.584c-5.6187 14.749-8.7051 30.744-8.7051 47.457 0 67.094 49.599 122.67 114.1 132.06l14.41 24.543c-84.285-2.6171-151.74-71.684-151.74-156.61 0-25.98 6.32-50.475 17.496-72.041zm278.95 1.0547c10.839 21.308 16.951 45.429 16.951 70.986 0 85.261-67.993 154.55-152.75 156.64l14.594-24.465c64.902-9.0394 114.92-64.802 114.92-132.18 0-16.346-2.9499-32.008-8.3359-46.486zm-163.85 15.744h47.396l7.293 9.8692 7.2949 9.8691-4.1328 4.0137c-8.6939 8.4435-16.298 29.348-18.26 50.197-0.71165 7.5583-0.90482 14.13-0.42969 14.605 0.47459 0.4748 4.3417-0.9205 8.5938-3.0996 14.604-7.4845 26.99-23.521 30.383-39.34 0.68171-3.1783 1.4298-5.7793 1.666-5.7793 0.88187 0 5.2542 11.01 6.9102 17.4 0.95929 3.702 1.7188 11.696 1.7188 18.096 0 34.232-19.108 61.634-46.32 66.428-7.313 1.2883-7.5893 1.658-5.5156 7.3926 1.259 3.4817 0.93004 4.4139-5.4238 15.398-3.7199 6.4311-7.0847 11.693-7.4766 11.693-0.39222 0-3.7566-5.2623-7.4766-11.693-6.3546-10.984-6.6827-11.917-5.4238-15.398 2.0805-5.7533 1.807-6.1036-5.8438-7.4512-20.68-3.6427-37.386-21.195-43.711-45.926-2.7833-10.882-3.0477-28.949-0.5625-38.539 1.6559-6.3907 6.0281-17.4 6.9102-17.4 0.2355 0 1.0076 2.6978 1.7148 5.9961 3.4038 15.872 16.717 32.885 30.977 39.584 3.9631 1.8613 7.5322 3.0557 7.9336 2.6543 0.40139-0.401 0.17603-6.9692-0.5039-14.598-1.8588-20.877-9.3912-41.697-18.168-50.221l-4.1328-4.0137 7.2949-9.8691zm-96.086 15.586 96.234 163.91c-58.451-11.184-102.57-62.524-102.57-124.25 0-13.854 2.2301-27.184 6.3379-39.656zm240.69 0.9414c3.9126 12.201 6.0332 25.208 6.0332 38.715 0 61.999-44.511 113.52-103.34 124.4z"
                                  color="#000000" color-rendering="auto" dominant-baseline="auto" fill="#9fcdeb"
                                  image-rendering="auto" shape-rendering="auto" solid-color="#000000"
                                  stop-color="#000000"
                                  style="font-feature-settings:normal;font-variant-alternates:normal;font-variant-caps:normal;font-variant-east-asian:normal;font-variant-ligatures:normal;font-variant-numeric:normal;font-variant-position:normal;font-variation-settings:normal;inline-size:0;isolation:auto;mix-blend-mode:normal;shape-margin:0;shape-padding:0;text-decoration-color:#000000;text-decoration-line:none;text-decoration-style:solid;text-indent:0;text-orientation:mixed;text-transform:none;white-space:normal"/>
                        </g>
                    </g>
                </g>
                <g>
                    <path transform="scale(.26458)"
                          d="m776.46 0-65.656 3.6953c-36.111 2.0322-66.372 3.418-67.246 3.0801-0.96854-0.37425-1.5898-1.8055-1.5898-3.666v-3.0527h-37.803l1.4766 4.7832c8.4396 27.349-28.463 64.659-87.666 88.633-27.104 10.976-56.866 18.253-87.74 21.455-15.136 1.5698-52.876 0.68222-64.514-1.5176-28.685-5.4221-51.329-17.135-57.791-29.891-2.2307-4.4031-5.2813-19.323-7.0215-34.344-1.1192-9.6608-0.81554-29.2 0.63867-41.062l0.55664-4.5312-6.6348 7.0469c-12.027 12.778-20.328 27.03-24.52 42.096-2.5633 9.2124-2.776 23.879-0.47851 32.961 1.9156 7.5725 7.2668 18.721 11.676 24.326 1.6956 2.1558 2.9146 4.0466 2.7109 4.2012-0.20376 0.15481-64.378 24.902-142.61 54.992l-142.24 54.709v17.066c0 15.832 0.12643 17.017 1.75 16.406 0.96231-0.36231 71.826-27.836 157.47-61.053l155.72-60.393 5.0293 2.5664c11.891 6.0678 33.57 11.605 54.627 13.955 12.719 1.4194 12.098 0.60084 12.307 16.254 0.0737 5.5381 1.8682 50.851 3.9883 100.69 2.1201 49.843 3.7451 90.746 3.6094 90.898-0.13584 0.15194-88.957 4.4467-197.38 9.5449l-197.13 9.2695v33.551l8.25-0.46094c28.814-1.6083 387.22-17.285 387.55-16.951 0.22469 0.22628 6.0252 134.44 12.889 298.26 6.8634 163.82 12.549 297.88 12.635 297.93 0.0858 0.0407 2.3081-0.12082 4.9395-0.35742 3.8659-0.34764 4.6904-0.7482 4.2969-2.0879-2.7717-9.4356-8.5917-134.49-8.7285-187.55-0.0693-26.896 0.57927-31.195 4.1328-27.441 3.4624 3.6577 7.2984 18.371 9.9414 38.133 0.96038 7.181 3.9219 44.592 4.1445 52.361 0.0476 1.6612 0.31242 2.4539 0.58984 1.7617 0.7429-1.8539 3.1258-1.5301 3.709 0.50391 3.1985 11.155 7.8146 62.441 9.2441 102.71l0.6875 19.385h9.875l-0.63086-8.3086c-1.0707-14.084-32.547-577.44-32.547-582.51v-4.7734l244.24-10.881c134.33-5.9842 245.75-10.854 247.61-10.824 2.8264 0.0469 4.8013 1.4269 12.256 8.5703 11.161 10.695 27.676 21.823 44.205 29.785l12.785 6.1602-2.3848 3.1934c-1.3122 1.7573-93.65 133.47-205.2 292.69-111.55 159.22-203.6 290.34-204.57 291.38-1.7221 1.8515-2.0702 1.8363-15.604-0.7558-15.063-2.8852-24.73-4.2461-36.34-5.1114l-7.498-0.55859 9.998 3.3789c11.999 4.0532 23.52 8.6904 31.287 12.594 3.1415 1.5788 9.0862 3.8711 13.211 5.0957 88.902 26.393 141 93.521 141.11 181.83 0.0391 31.287-6.1425 56.945-21.107 87.604-10.498 21.508-22.571 39.479-42.277 62.932l-8.8848 10.574 10.66-11.076c14.897-15.479 28.589-32.87 42.117-53.488 6.3654-9.7019 12.225-17.89 13.02-18.197 2.5779-0.996 2.8275 0.6797 1.0938 7.3359-6.7239 25.816-24.327 53.504-51.176 80.486-29.083 29.229-58.497 48.112-80.637 51.77-3.6962 0.6107-10.319 3.5162-20.869 9.1562-56.154 30.019-99.869 41.454-159.04 41.602-76.974 0.1916-140.87-24.436-178.49-68.795-67.056-79.072-61.137-183.69 15.471-273.41 2.8373-3.3228 7.5615-10.121 10.498-15.105s7.8514-12.573 10.922-16.865c3.0705-4.292 5.177-7.8027 4.6816-7.8027-1.2099 0-30.532 29.185-36.781 36.609l-4.9648 5.8984-109.74-136.55c-60.358-75.101-109.93-136.55-110.16-136.55-0.22734 0-0.41433 14.612-0.41406 32.473v32.473l96.082 122.83c52.844 67.556 96.289 123.17 96.543 123.58 0.25421 0.4143-3.1574 8.1244-7.5801 17.133-12.408 25.274-20.908 53.318-24.029 79.285-1.5298 12.727-1.254 39.589 0.53907 52.535 14.095 101.76 102.27 174.5 222.42 183.48 10.711 0.8004 50.659-0.3359 61.996-1.7637 45.896-5.7802 86.17-18.119 126.98-38.904 95.885-48.835 161.89-134 173.47-223.82 1.9085-14.802 1.9435-40.082 0.0762-54.207-8.8061-66.61-50.49-123.34-114-155.14-5.7966-2.9029-10.539-5.5843-10.539-5.957s88.256-129.29 196.13-286.49c107.87-157.2 199.22-290.46 203.01-296.13 3.7866-5.6765 6.9878-10.318 7.1132-10.316 0.1253 2e-3 5.8624 1.1146 12.748 2.4726 38.242 7.5427 87.608 7.5161 128.97-0.0684 60.248-11.047 113.52-36.592 146.18-70.09 11.972-12.281 23.148-28.488 28.316-41.066 1.0241-2.4921 2.1163-4.8204 2.4277-5.1719 0.3113-0.35165 34.876-4.8819 76.811-10.068l76.244-9.4297v-7.8047c0-6.9711-0.1989-7.8027-1.8809-7.8027-1.0355 0-13.072 1.3525-26.748 3.0059-49.712 6.0092-90.083 8.7342-89.184 6.0176 0.6082-1.837 3.6862-2.6142 21.82-5.5059 14.126-2.2524 69.805-9.3994 87.994-11.295l7.5-0.78125 0.2929-6.1113 0.293-6.1113-69.789 8.7832c-38.384 4.8312-71.364 8.9412-73.289 9.1328l-3.5 0.34765-0.7422-7.4941c-0.9184-9.2764-3.8506-20.243-7.7012-28.795-2.7635-6.1376-11.301-19.764-16.228-25.9-1.9399-2.416-2.0423-2.9569-0.7793-4.1328 0.7993-0.74419 35.608-29.852 77.352-64.684 41.744-34.832 78.551-65.552 81.793-68.268 5.6323-4.7183 6.0474-4.8906 9.3653-3.8652l3.4707 1.0742-0.2676-22.123-0.2695-22.123-7.7207-3.3809c-11.011-4.8203-22.209-11.761-31.031-19.236l-7.6309-6.4668h-22.557c-12.406 0-22.555 0.39857-22.555 0.88477 0 1.6098 2.8876 7.8783 6.3848 13.859 7.2843 12.458 21.086 25.893 37.441 36.445 4.5812 2.9556 8.1814 5.4855 8 5.623-0.1814 0.13769-35.971 29.551-79.533 65.363-43.562 35.812-79.664 65.113-80.227 65.113s-3.393-1.5252-6.291-3.3887c-2.898-1.8634-8.0754-4.811-11.504-6.5508l-6.2324-3.1641 4.3574 6.8027c9.3526 14.6 17.888 34.648 22.557 52.979 3.9984 15.7 7.2207 42.511 6.1348 51.039-3.4645 27.21-30.432 55.853-71.578 76.021-27.94 13.695-57.175 22.174-93.996 27.264-18.105 2.5021-60.804 2.5285-78.494 0.0488-46.202-6.4763-81.774-21.409-103.49-43.445-16.692-16.935-20.219-27.947-19.193-59.936 0.85969-26.816 4.792-46.278 14.09-69.729 2.3604-5.9534 4.0889-10.824 3.8398-10.824-0.24915 0-3.3419 2.3151-6.873 5.1445-3.9348 3.1528-7.0879 4.9594-8.1426 4.668-1.9191-0.53004-327.51-139.69-328.02-140.2-0.17719-0.17673 1.848-3.0351 4.5-6.3516 5.5582-6.9508 13.473-20.121 15.4-25.627 0.7271-2.0768 1.5874-3.7754 1.9121-3.7754 0.32458 0 129.9-7.0301 287.94-15.621 158.04-8.5911 287.57-15.395 287.84-15.121 0.2719 0.27379-6.0962 22.151-14.152 48.617-8.0562 26.466-14.648 48.615-14.648 49.221 0 0.60548 2.1377 1.8988 4.75 2.873 2.6124 0.97421 9.1417 3.8237 14.51 6.334s9.9023 4.3811 10.076 4.1562c0.1738-0.22481 7.6927-25.856 16.709-56.959l16.394-56.551 12.027-0.68555c6.6156-0.37629 25.978-1.4881 43.027-2.4707l30.998-1.7851-122.5-0.13672c-119.19-0.13145-123.61-0.067587-163.99 2.3496-88.757 5.3134-157.17 8.2368-164.33 7.0215-10.889-1.8471 2.7206-3.4942 53.342-6.4551 18.974-1.1098 36.748-2.1695 39.498-2.3535 2.7498-0.18406-41.122-0.42732-97.494-0.54297zm-185.27 96.609 10.141 4.5332c5.5767 2.4932 79.659 34.937 164.63 72.098 84.968 37.161 154.82 67.9 155.23 68.309 0.40611 0.40898-0.89873 3.1915-2.8984 6.1816-5.714 8.5441-12.2 23.24-15 33.986-3.5001 13.434-3.6992 31.814-0.48633 44.986 1.2022 4.9288 1.9831 9.1654 1.7344 9.416-0.24881 0.25055-104.76 5.383-232.25 11.404v-2e-3c-127.49 6.0213-234.51 10.96-237.81 10.975l-6.0137 0.0254-4.3359-78.287c-2.3848-43.059-4.7074-83.273-5.1621-89.365-0.45472-6.0919-1.1361-16.801-1.5137-23.799l-0.6875-12.725 8.3633-0.68164c58.446-4.7664 114.44-22.783 155.51-50.041z"
                          clip-path="url(#clipPath1506)" fill="#0e3f68" stroke-width="1.0034"/>
                    <g stroke-width=".26549">
                        <path d="m350.56 51.918c7.3179-5.8862 14.283-12.207 14.283-12.961 0-0.68177-1.1005-0.23258-3.3132 1.3524-2.6672 1.9104-10.934 8.5605-13.09 10.53l-1.4551 1.3293 0.66142 0.55585c0.36378 0.30571 0.7822 0.55984 0.92983 0.56471 0.1476 5e-3 1.0405-0.61222 1.9843-1.3713z"
                              clip-path="url(#clipPath1502)" fill="#fff"/>
                        <path d="m116.15 35.949c2.9788-0.32173 13.418-2.3727 16.8-3.3007 4.7388-1.3003 9.3922-3.5119 9.3922-4.4639 0-0.38024-1.2294-0.0818-6.3406 1.5391-7.4794 2.3719-15.415 3.7622-27.206 4.7665-0.62562 0.0532-1.2134 0.17337-1.3063 0.26684-0.0928 0.0935 0.24045 0.52745 0.74063 0.96436 0.89293 0.77996 0.95022 0.7917 3.1582 0.64686 1.2369-0.0811 3.3799-0.26966 4.7622-0.41897z"
                              clip-path="url(#clipPath1498)" fill="#fff"/>
                        <path d="m8.3667 60.657c5.0291-1.715 12.056-4.302 24.704-9.0948 5.1657-1.9574 12.25-4.5844 15.742-5.8376 3.4923-1.2533 12.362-4.6032 19.71-7.4444 13.344-5.1593 13.361-5.1667 13.361-5.9306 0-0.46293-0.1285-0.73924-0.32555-0.69997-0.17904 0.0357-5.5365 2.0524-11.906 4.4815-6.369 2.4292-13.902 5.2366-16.739 6.2387-31.307 11.057-49.024 18.006-49.422 19.386-0.15719 0.54454 0.46888 0.40336 4.8753-1.0993z"
                              clip-path="url(#clipPath1494)" fill="#e5f1f9"/>
                    </g>
                </g>
                <g fill="#fff" stroke-width=".26549">
                    <path d="m247.64 59.284c0-0.46046-3.9803-2.222-9.9655-4.4102-2.8858-1.0551-7.9853-3.1139-11.332-4.5751-3.3468-1.4612-10.609-4.4561-16.139-6.6554-13.502-5.3702-16.153-6.2557-14.15-4.7258 2.5275 1.9306 27.294 12.776 40.078 17.551 1.6006 0.5978 4.577 1.7949 6.6142 2.6602l3.7039 1.5733 0.59528-0.55131c0.32741-0.30321 0.59528-0.69315 0.59528-0.86654z"
                          clip-path="url(#clipPath1490)"/>
                    <path d="m131.36 99.391c17.242-0.76238 23.086-1.064 31.219-1.6111 2.0372-0.13706 5.6684-0.25155 8.0693-0.2544 11.618-0.0138 38.31-1.5762 39.492-2.3116 0.13544-0.0843 0.11294-0.27636-0.0518-0.44226-0.66193-0.66655-8.7803-0.54133-31.106 0.47982-4.8019 0.21962-13.85 0.52163-20.107 0.67113-6.257 0.1495-19.056 0.62941-28.441 1.0665-9.3856 0.43707-17.63 0.7959-18.321 0.7974-0.80094 2e-3 -1.2567 0.11889-1.2567 0.32306 0 0.4723 1.6246 2.0774 2.1023 2.0772 0.2261-1.2e-4 8.5069-0.35818 18.402-0.79569z"
                          clip-path="url(#clipPath1486)"/>
                    <path d="m34.536 103.51c5.9604-0.22283 20.719-0.82076 32.796-1.3288 12.078-0.50798 25.114-1.052 28.97-1.209 3.8561-0.15699 7.3682-0.33918 7.8048-0.40487 0.59615-0.0897 0.93619-0.38383 1.3662-1.1817 0.31486-0.58422 0.49345-1.1111 0.39686-1.1709-0.0966-0.0597-4.9974 0.11765-10.891 0.39426-54.817 2.573-75.433 3.6032-76.989 3.8471-1.9615 0.3075-2.3811 0.44753-2.3811 0.79461 0 0.1974 0.20833 0.41375 0.46302 0.48076 0.96497 0.25395 8.0055 0.16949 18.464-0.2215z"
                          clip-path="url(#clipPath1482)"/>
                    <path d="m267.52 104.99 1.342-0.44052-3.2697-0.88529c-5.0385-1.3642-6.0359-1.584-6.1729-1.3607-0.22381 0.36467 0.83948 1.113 3.4671 2.44 1.9942 1.0071 2.645 1.2274 2.9279 0.99101 0.20007-0.16719 0.96763-0.50222 1.7057-0.74451z"
                          clip-path="url(#clipPath1478)"/>
                    <path d="m300.15 109.53c3.8569-0.14455 7.6068-0.42946 8.9953-0.68342 5.0561-0.92478 10.471-2.5381 13.432-4.0022 1.8054-0.89254 2.319-1.3934 1.7758-1.7314-0.44228-0.27525-0.47951-0.26876-7.8002 1.3608-6.5304 1.4537-13.726 2.7369-17.798 3.1738-2.1601 0.23181-3.761 0.2062-7.8048-0.12484-7.7137-0.6315-12.653-1.1943-16.596-1.8912-1.9644-0.34717-3.9884-0.70419-4.4976-0.79338l-0.92599-0.16215 0.73065 0.57644c0.40188 0.31705 1.0311 1.0927 1.3984 1.7237l0.66766 1.1473 2.967 0.55716c1.6319 0.30643 4.098 0.67821 5.4804 0.82619 1.3824 0.14797 2.9301 0.31764 3.4394 0.37704 1.0831 0.12635 7.2387-5e-3 16.536-0.35384z"
                          clip-path="url(#clipPath1474)"/>
                    <path d="m159.66 264.62c3.3069-3.7564 7.8415-9.6477 12.999-16.888 2.8977-4.0679 4.2403-5.7504 4.4336-5.5558 0.15249 0.15356 0.42937 0.27919 0.61529 0.27919 1.3992 0 18.252-23.687 23.693-33.302 1.8696-3.3035 2.2156-4.1315 1.8276-4.3729-0.36197-0.22528-2.3939 2.1088-6.095 7.0015-1.7883 2.364-3.3135 4.2982-3.3893 4.2982-0.0758 0 0.0779-0.32968 0.34154-0.73264 2.8414-4.3424 4.2915-7.2598 3.6085-7.2598-0.70039 0-8.6385 9.4213-13.468 15.985-3.5569 4.8337-9.2077 12.914-15.463 22.112-9.852 14.486-13.583 20.334-13.355 20.933 0.0806 0.21156 0.4941 0.38038 0.93155 0.38038 0.66751 0 1.1702-0.43574 3.3206-2.8784z"
                          clip-path="url(#clipPath1470)"/>
                    <path d="m53.815 301.56c0.24783 0.4038 1.8159 0.39466 2.2207-0.0131 0.17461-0.17583 0.31748-0.55478 0.31748-0.84214 0-1.1224-6.3011-8.8153-13.887-16.954-1.0243-1.099-3.5238-4.1561-5.5546-6.7936-7.0429-9.1472-19.223-23.24-27.225-31.5-3.5112-3.6246-4.6596-4.571-4.6596-3.8403 0 0.71061 5.4901 8.8456 12.973 19.223 8.0727 11.195 11.27 15.199 21.769 27.259 7.1223 8.1816 10.096 11.417 11.862 12.908 1.2145 1.025 1.3802 1.0937 1.6717 0.69228 0.22755-0.31336 0.3794-0.35455 0.51182-0.13877z"
                          clip-path="url(#clipPath1466)"/>
                </g>
                <path d="m100.67 382.94c-9.9557-0.83125-17.653-2.8852-25.346-6.7633-11.191-5.6415-19.36-14.6-23.051-25.278-1.6544-4.7861-2.0892-7.4786-2.1112-13.071-0.0249-6.3472 0.71312-10.584 2.923-16.779 1.0178-2.8534 4.7789-10.83 5.0011-10.606 0.0716 0.0721-0.10612 1.1381-0.39492 2.3689-1.9541 8.3277-2.1946 17.692-0.69035 26.881 0.3478 2.1247 0.71057 4.5522 0.80617 5.3946 0.20937 1.845 1.2534 5.9079 2.0368 7.9262 3.5587 9.1688 11.126 17.033 20.86 21.677 7.6468 3.6484 15.155 5.3729 24.729 5.6796 16.519 0.52932 33.802-4.5375 48.019-14.078 5.2647-3.5327 7.6948-5.5404 12.182-10.065 8.8506-8.9241 14.399-18.734 16.66-29.456 0.71676-3.399 1.0029-10.79 0.54292-14.021-1.3789-9.6849-6.825-20.84-14.531-29.766-1.9328-2.2384-1.5993-2.1377 2.0255 0.61191 9.0995 6.9024 14.779 16.916 16.573 29.222 3.1783 21.795-14.304 47.407-41.521 60.83-10.673 5.2636-21.412 8.2517-33.043 9.1934-3.1567 0.2556-9.1774 0.30632-11.669 0.0983z"
                      clip-path="url(#clipPath1462)" fill="#0e3f68" stroke-width=".26549"/>
            </g>
        </g>
    </g>
    <rect width="508" height="285.75" fill="none" stroke="#123f66" stroke-width="5"
          style="paint-order:markers stroke fill"/>
    <path d="m216.24 0v285.75" fill="none" stroke="#123f66" stroke-width="6"/>
    <g fill="#1970b7" font-family="'Cooper Black'" word-spacing="0px">
        <g font-size="3.5278px" letter-spacing=".52917px">
            <text>
                {#for result in results}
                {#if count.getIsStart }
            </text>
            <text transform="matrix(6.262 0 0 6.262 {count.getXOffset} -313.37)" font-family="'League Spartan'"
                  style="line-height:1;shape-inside:url(#rect2174);white-space:pre" xml:space="preserve">
                <tspan x="257.35547" y="67.791733">{result.code} </tspan>
                {#else}
                <tspan x="257.35547" dy="3.622894">{result.code}</tspan>
                {/if}
                {/for}
            </text>
            <text transform="matrix(6.262 0 0 6.262 -1311 -313.37)" font-family="'League Spartan'"
                  style="line-height:1;shape-inside:url(#rect2174);white-space:pre" xml:space="preserve">
            </text>
            <text transform="matrix(6.262 0 0 6.262 -1244.3 -313.37)" font-family="'League Spartan'"
                  style="line-height:1;shape-inside:url(#rect2174);white-space:pre" xml:space="preserve">
            </text>
            <text transform="matrix(6.262 0 0 6.262 -1177.6 -313.37)" font-family="'League Spartan'"
                  style="line-height:1;shape-inside:url(#rect2174);white-space:pre" xml:space="preserve">
            </text>
        </g>
        <text x="365.98557" y="27.870516" font-size="11.657px" letter-spacing="1.7485px" stroke-width=".87425"
              text-align="center" text-anchor="middle" style="line-height:1.5" xml:space="preserve"><tspan x="365.98557" y="27.870516" fill="#1970b7" font-family="'League Spartan'" stroke-width=".87425" text-align="center" text-anchor="middle">ADVANCING {round.toUpperCase}S</tspan></text>
        <text x="366.8598" y="55.166859" font-size="19.286px" letter-spacing="2.8929px" stroke-width="1.4464"
              text-align="center" text-anchor="middle" style="line-height:1.5" xml:space="preserve"><tspan x="368.30624" y="55.166859" fill="#1970b7" font-family="'League Spartan'" stroke-width="1.4464" text-align="center" text-anchor="middle">{event.name.toUpperCase}</tspan></text>
    </g>
</svg>
